# xmcd
#
# Track frame offsets: 
#        150
#        13012
#        31312
#        44775
#        59837
#        79062
#        100475
#        116100
#        128250
#        140312
#        151637
#        164587
#        180137
#        195925
#
# Disc length: 2862 seconds
#
# Revision: 2
# Processed by: cddbd v1.5.2PL0 Copyright (c) Steve Scherf et al.
# Submitted via: ExactAudioCopyFreeDBPlugin 1.0
#
DISCID=b10b2c0e
DTITLE=Various Artist - Romance on Violin
DYEAR=1999
DGENRE=Classical
TTITLE0=If
TTITLE1=First for May
TTITLE2=Song from a secret garden
TTITLE3=Make it with you
TTITLE4=Kiss me goodbye
TTITLE5=You make me feel brand new
TTITLE6=Stay awhile
TTITLE7=Love's not for me
TTITLE8=Interlude
TTITLE9=Memory
TTITLE10=Are you lonesome tonight
TTITLE11=What a wonderful world
TTITLE12=As time goes by
TTITLE13=Somewhere in time
EXTD=
EXTT0=
EXTT1=
EXTT2=
EXTT3=
EXTT4=
EXTT5=
EXTT6=
EXTT7=
EXTT8=
EXTT9=
EXTT10=
EXTT11=
EXTT12=
EXTT13=
PLAYORDER=
